# xmcd
# Copyright (C) 1995-1998 Ti Kan
#
# Track frame offsets:
#       150
#       16925
#       31171
#       47338
#       63823
#       74260
#       89838
#       104265
#       113547
#       123636
#       135404
#       150444
#       167001
#       182801
#       197773
#
# Disc length: 3137 seconds
#
# Revision: 0
# Processed by: cddbd v1.5.2PL0 Copyright (c) Steve Scherf et al.
# Submitted via: CD-Transfer v1.0
#
DISCID=bc0c3f0f
DTITLE=Alfred E. Mair Und M. Schweigkofler - Im Schatten Deiner Flügel
DYEAR=06
DGENRE=
TTITLE0=Im Schatten Deiner Flügel
TTITLE1=Es Sollen Wohl Berge Weichen
TTITLE2=Tu Ein Zeichen An Mir
TTITLE3=Von Mir
TTITLE4=Tag Für Tag
TTITLE5=Worte
TTITLE6=Erschaffe In Mir
TTITLE7=Dankt Dem Herren
TTITLE8=Herr, Ich Sehe Deine Welt
TTITLE9=Mit Jesus
TTITLE10=Salz Der Erde, Licht Der Welt
TTITLE11=Eines Bitte Ich Vom Herrn
TTITLE12=Quelle Des Lebens
TTITLE13=Vater Unser
TTITLE14=Bieg Nicht Ab
EXTD=
EXTT0=
EXTT1=
EXTT2=
EXTT3=
EXTT4=
EXTT5=
EXTT6=
EXTT7=
EXTT8=
EXTT9=
EXTT10=
EXTT11=
EXTT12=
EXTT13=
EXTT14=
PLAYORDER=
